<svg width="640" height="420" viewBox="0 0 640 420" fill="none" xmlns="http://www.w3.org/2000/svg">
  <rect width="640" height="420" rx="32" fill="#F8F8F8"/>
  <rect x="48" y="22" width="544" height="376" rx="8" fill="white" stroke="#D6DADF" stroke-width="2"/>
  <rect x="88" y="62" width="182" height="18" rx="4" fill="#1E293B"/>
  <rect x="88" y="92" width="290" height="8" rx="4" fill="#64748B"/>
  <rect x="88" y="132" width="130" height="10" rx="3" fill="#334155"/>
  <rect x="88" y="152" width="462" height="8" rx="4" fill="#CBD5E1"/>
  <rect x="88" y="168" width="438" height="8" rx="4" fill="#E2E8F0"/>
  <rect x="88" y="198" width="130" height="10" rx="3" fill="#334155"/>
  <rect x="88" y="218" width="462" height="8" rx="4" fill="#CBD5E1"/>
  <rect x="88" y="234" width="420" height="8" rx="4" fill="#E2E8F0"/>
  <rect x="88" y="264" width="130" height="10" rx="3" fill="#334155"/>
  <rect x="88" y="286" width="96" height="24" rx="4" fill="#E2E8F0"/>
  <rect x="194" y="286" width="108" height="24" rx="4" fill="#E2E8F0"/>
  <rect x="312" y="286" width="88" height="24" rx="4" fill="#E2E8F0"/>
  <rect x="88" y="336" width="130" height="10" rx="3" fill="#334155"/>
  <rect x="88" y="356" width="316" height="8" rx="4" fill="#CBD5E1"/>
</svg>
