<svg width="640" height="420" viewBox="0 0 640 420" fill="none" xmlns="http://www.w3.org/2000/svg">
  <rect width="640" height="420" rx="32" fill="#F6F1EA"/>
  <rect x="36" y="24" width="568" height="372" rx="16" fill="white"/>
  <rect x="112" y="74" width="416" height="22" rx="11" fill="#472D24"/>
  <rect x="206" y="110" width="228" height="10" rx="5" fill="#866255"/>
  <rect x="94" y="150" width="452" height="3" rx="1.5" fill="#A36C4C"/>
  <rect x="94" y="178" width="116" height="12" rx="6" fill="#A36C4C"/>
  <rect x="94" y="202" width="440" height="9" rx="4.5" fill="#B3A095"/>
  <rect x="94" y="220" width="420" height="9" rx="4.5" fill="#D2C3BA"/>
  <rect x="94" y="254" width="148" height="12" rx="6" fill="#A36C4C"/>
  <rect x="94" y="278" width="430" height="9" rx="4.5" fill="#B3A095"/>
  <rect x="94" y="296" width="406" height="9" rx="4.5" fill="#D2C3BA"/>
  <rect x="94" y="330" width="132" height="12" rx="6" fill="#A36C4C"/>
  <rect x="94" y="354" width="320" height="9" rx="4.5" fill="#B3A095"/>
</svg>
