<svg width="640" height="420" viewBox="0 0 640 420" fill="none" xmlns="http://www.w3.org/2000/svg">
  <rect width="640" height="420" rx="32" fill="#F8FBFA"/>
  <rect x="40" y="30" width="560" height="360" rx="28" fill="white"/>
  <rect x="74" y="68" width="6" height="284" rx="3" fill="#166534"/>
  <rect x="104" y="70" width="224" height="20" rx="10" fill="#152922"/>
  <rect x="104" y="104" width="164" height="9" rx="4.5" fill="#6B7E76"/>
  <rect x="104" y="148" width="96" height="12" rx="6" fill="#166534"/>
  <rect x="104" y="174" width="410" height="10" rx="5" fill="#A2B3AE"/>
  <rect x="104" y="194" width="386" height="10" rx="5" fill="#D2DBD7"/>
  <rect x="104" y="232" width="120" height="12" rx="6" fill="#166534"/>
  <rect x="104" y="260" width="74" height="28" rx="14" fill="#166534" fill-opacity="0.12"/>
  <rect x="188" y="260" width="86" height="28" rx="14" fill="#166534" fill-opacity="0.12"/>
  <rect x="284" y="260" width="92" height="28" rx="14" fill="#166534" fill-opacity="0.12"/>
  <rect x="104" y="312" width="112" height="12" rx="6" fill="#166534"/>
  <rect x="104" y="338" width="352" height="9" rx="4.5" fill="#A2B3AE"/>
</svg>
